#!OML:ASF I:\Actors\actors\Patient Classification 1\Patient 1\Session 1\Subject1.ASF
:FULLY-SPECIFIED
:DEGREES
666
root -0.965676 17.5839 7.48137 8.11147 3.37957 -7.08734
lowerback 6.19832 2.40004 9.82192
upperback -8.84395 4.85755 3.06974
thorax -12.7074 1.58133 -2.90074
lowerneck -9.74571 -12.5699 -9.08795
upperneck 17.5583 -17.0004 6.01524
head 8.34701 -8.1698 1.54848
rclavicle -7.15625e-015 -7.31528e-014
rhumerus -10.5996 32.5947 -64.5869
rradius 49.422
rwrist 55.5373
rhand -34.9236 -60.6953
rfingers 7.12502
rthumb -8.07101 90.5212
lclavicle -7.15625e-015 -7.31528e-014
lhumerus -45.4328 13.2396 53.0546
lradius 104.415
lwrist 13.5198
lhand -36.194 -36.2391
lfingers 7.12502
lthumb -9.29703 -6.46407
rfemur -0.100192 24.1097 27.6275
rtibia -0.467687
rfoot -13.3276 -25.9362
rtoes 9.67462
lfemur 0.224336 -34.1373 -9.23524
ltibia -1.09742
lfoot -9.80467 37.509
ltoes -8.35669
667
root -0.956187 17.5834 7.48018 8.03683 3.87023 -7.00601
lowerback 6.97768 2.21258 9.33512
upperback -9.27529 4.72906 3.33506
thorax -13.7837 1.52097 -2.36881
lowerneck -9.24302 -12.4916 -9.10287
upperneck 17.3398 -16.8215 5.56316
head 8.13103 -8.14634 1.47214
rclavicle 3.12092e-014 -2.8625e-014
rhumerus -11.0577 27.7119 -62.98
rradius 47.9713
rwrist 57.1313
rhand -35.8341 -60.1511
rfingers 7.12502
rthumb -8.94972 270.059
lclavicle 3.12092e-014 -2.8625e-014
lhumerus -46.9997 12.9242 52.2553
lradius 104.654
lwrist 13.6128
lhand -36.2525 -36.1377
lfingers 7.12502
lthumb -9.35343 -6.3652
rfemur 0.0055454 24.0296 27.5608
rtibia -0.471545
rfoot -13.5219 -26.328
rtoes 9.92853
lfemur 0.00704073 -34.211 -9.24093
ltibia -0.952148
lfoot -9.75678 37.027
ltoes -8.47678
668
root -0.944944 17.5838 7.47107 7.95802 4.12597 -6.89216
lowerback 7.44992 2.13611 9.09282
upperback -9.36569 4.68031 3.44087
thorax -14.2229 1.5066 -2.13509
lowerneck -9.26379 -12.4962 -9.00032
upperneck 17.1651 -16.7703 5.27652
head 8.03696 -8.14313 1.3791
rclavicle 1.73937e-014 -5.24792e-014
rhumerus -10.0267 24.8313 -60.394
rradius 47.0934
rwrist 58.0403
rhand -34.9459 -61.4513
rfingers 7.12502
rthumb -8.09253 91.2763
lclavicle 1.73937e-014 -5.24792e-014
lhumerus -47.7889 12.8622 51.5831
lradius 104.735
lwrist 13.6353
lhand -36.2521 -35.9333
lfingers 7.12502
lthumb -9.35304 -6.16075
rfemur 0.0343331 24.1073 27.4167
rtibia -0.393597
rfoot -13.6707 -26.6769
rtoes 10.0284
lfemur -0.122091 -34.2496 -9.33489
ltibia -0.848771
lfoot -9.49396 36.7462
ltoes -8.91164
669
root -0.930235 17.5848 7.46387 7.88739 4.32345 -6.87963
lowerback 7.60727 2.07093 9.20724
upperback -9.28607 4.62474 3.46732
thorax -14.2292 1.47095 -2.16573
lowerneck -9.45059 -12.5177 -8.8413
upperneck 17.0223 -16.7605 5.09114
head 7.98993 -8.14175 1.29299
rclavicle -1.53064e-014 2.38542e-014
rhumerus -7.07525 24.0653 -57.4511
rradius 44.8494
rwrist 56.1526
rhand -35.1026 -62.8562
rfingers 7.12502
rthumb -8.24376 92.6753
lclavicle -1.53064e-014 2.38542e-014
lhumerus -48.1834 12.9212 50.951
lradius 104.734
lwrist 13.6717
lhand -36.1337 -35.8025
lfingers 7.12502
lthumb -9.23883 -6.02494
rfemur 0.101876 24.2375 27.3853
rtibia -0.386897
rfoot -13.8271 -26.9812
rtoes 10.269
lfemur -0.163843 -34.2958 -9.35172
ltibia -0.850465
lfoot -9.37698 36.547
ltoes -8.81166
670
root -0.915112 17.5893 7.46019 7.9609 4.6387 -7.09047
lowerback 7.27203 1.99589 9.84631
upperback -9.124 4.53962 3.39862
thorax -13.7913 1.38569 -2.55899
lowerneck -9.63824 -12.5592 -8.64767
upperneck 16.822 -16.8175 5.08971
head 7.94228 -8.15446 1.25254
rclavicle 2.10712e-014 6.67916e-014
rhumerus -4.26076 21.0521 -55.4654
rradius 42.9779
rwrist 55.9294
rhand -36.4578 -62.9349
rfingers 7.12502
rthumb -9.55154 92.6984
lclavicle 2.10712e-014 6.67916e-014
lhumerus -48.1799 12.9698 50.4193
lradius 104.679
lwrist 13.7223
lhand -36.2022 -35.9528
lfingers 7.12502
lthumb -9.30493 -6.17814
rfemur 0.0550811 24.2908 27.5814
rtibia -0.482195
rfoot -13.9237 -27.2788
rtoes 10.4948
lfemur -0.523841 -33.9409 -8.90215
ltibia -0.837887
lfoot -9.17911 35.9172
ltoes -8.94589
671
root -0.897892 17.594 7.45167 8.06005 4.46226 -7.07397
lowerback 6.59152 2.11705 10.5555
upperback -8.66507 4.60634 3.06742
thorax -12.738 1.39342 -3.2846
lowerneck -9.89761 -12.636 -8.38552
upperneck 16.3314 -16.9666 5.39695
head 7.83935 -8.18209 1.29048
rclavicle 2.57426e-014 -2.78299e-014
rhumerus -1.25027 17.1558 -54.3433
rradius 42.1836
rwrist 57.1049
rhand -35.4346 -63.3575
rfingers 7.12502
rthumb -8.56416 93.1638
lclavicle 2.57426e-014 -2.78299e-014
lhumerus -47.4621 13.1663 50.0682
lradius 104.582
lwrist 13.8824
lhand -36.316 -36.1124
lfingers 7.12502
lthumb -9.41474 -6.34269
rfemur -0.0758808 24.4211 27.4335
rtibia -0.537342
rfoot -13.7707 -27.2915
rtoes 10.3155
lfemur -0.642457 -33.8109 -8.91402
ltibia -0.84473
lfoot -9.19463 35.9163
ltoes -8.59981
672
root -0.881424 17.5981 7.4372 8.13421 3.75711 -6.97416
lowerback 6.83751 2.24539 10.6886
upperback -8.73661 4.83116 2.99076
thorax -12.933 1.46848 -3.49049
lowerneck -9.53052 -12.5002 -8.3306
upperneck 16.2453 -16.8061 5.37709
head 7.72918 -8.117 1.32476
rclavicle -5.69518e-014 6.36111e-015
rhumerus 1.25874 15.1834 -53.7584
rradius 42.2253
rwrist 56.4348
rhand -33.7133 -64.0333
rfingers 7.12502
rthumb -6.9028 93.9007
lclavicle -5.69518e-014 6.36111e-015
lhumerus -47.8988 13.157 49.6873
lradius 104.705
lwrist 14.1688
lhand -36.1486 -36.1599
lfingers 7.12502
lthumb -9.25316 -6.38298
rfemur -0.327445 24.5944 27.1247
rtibia -0.424154
rfoot -13.3454 -26.9298
rtoes 9.41578
lfemur -0.484495 -33.8299 -9.2146
ltibia -0.849823
lfoot -9.43635 36.516
ltoes -7.79293
673
root -0.864973 17.6017 7.42 8.22649 2.77712 -6.88459
lowerback 7.15279 2.4466 10.8593
upperback -8.82781 5.16963 2.8889
thorax -13.1731 1.58757 -3.76901
lowerneck -9.28149 -12.3657 -8.20079
upperneck 16.3733 -16.6461 5.25209
head 7.69426 -8.05009 1.30175
rclavicle -1.41137e-014 1.35174e-014
rhumerus 3.77171 13.8799 -53.5646
rradius 42.6255
rwrist 56.4476
rhand -35.2191 -63.1352
rfingers 7.12502
rthumb -8.35618 92.9499
lclavicle -1.41137e-014 1.35174e-014
lhumerus -48.1916 13.1202 49.4609
lradius 104.786
lwrist 14.4113
lhand -36.0227 -36.1158
lfingers 7.12502
lthumb -9.13175 -6.33352
rfemur -0.668967 24.7348 26.7818
rtibia -0.233182
rfoot -12.8607 -26.2612
rtoes 8.34191
lfemur -0.216662 -33.8221 -9.5839
ltibia -0.873467
lfoot -9.81936 37.3266
ltoes -6.8168
674
root -0.849795 17.605 7.40883 8.40934 1.8202 -6.87933
lowerback 7.16404 2.66011 11.2063
upperback -8.82696 5.49072 2.77667
thorax -13.0996 1.7023 -4.13226
lowerneck -9.33277 -12.2806 -8.00303
upperneck 16.5739 -16.5339 5.06177
head 7.72714 -7.99779 1.22111
rclavicle -4.36332e-014 1.51076e-014
rhumerus 6.45542 13.2211 -53.6904
rradius 43.3259
rwrist 56.6976
rhand -35.423 -63.2399
rfingers 7.12502
rthumb -8.55301 93.0467
lclavicle -4.36332e-014 1.51076e-014
lhumerus -48.1275 13.2568 49.4822
lradius 104.785
lwrist 14.4171
lhand -36.0428 -35.9799
lfingers 7.12502
lthumb -9.15114 -6.19849
rfemur -1.01918 24.8699 26.5321
rtibia -0.155912
rfoot -12.4846 -25.5258
rtoes 7.88199
lfemur -0.0398397 -33.6196 -9.77382
ltibia -0.968601
lfoot -10.3045 37.945
ltoes -5.66135
675
root -0.836934 17.6067 7.40162 8.62382 0.711612 -6.80738
lowerback 7.55596 2.82797 11.0728
upperback -9.09612 5.80495 2.90187
thorax -13.6474 1.82805 -4.00439
lowerneck -9.27843 -12.0816 -8.03036
upperneck 17.1248 -16.2097 4.60721
head 7.84086 -7.87982 1.11205
rclavicle 2.32578e-014 3.4191e-014
rhumerus 8.97955 13.7224 -54.0313
rradius 44.2328
rwrist 57.1736
rhand -35.3983 -63.192
rfingers 7.12502
rthumb -8.52913 92.9997
lclavicle 2.32578e-014 3.4191e-014
lhumerus -48.6962 13.4868 49.6202
lradius 104.844
lwrist 14.207
lhand -36.0732 -35.8292
lfingers 7.12502
lthumb -9.18041 -6.04907
rfemur -1.38168 24.9268 26.1749
rtibia -0.1441
rfoot -12.0635 -24.5566
rtoes 7.37125
lfemur 0.183863 -33.2579 -10.0709
ltibia -1.09152
lfoot -10.8502 38.5639
ltoes -4.57912
676
root -0.825984 17.607 7.38899 8.7725 -0.640656 -6.58619
lowerback 7.31538 3.20721 11.2253
upperback -8.7773 6.23215 2.66862
thorax -13.0048 2.0501 -4.38467
lowerneck -9.75518 -12.0408 -7.90553
upperneck 17.2352 -16.1451 4.61811
head 7.94656 -7.82618 1.07264
rclavicle -1.88845e-014 -4.29375e-014
rhumerus 11.4158 14.4753 -54.1897
rradius 45.9286
rwrist 56.7963
rhand -35.2249 -63.3987
rfingers 7.12502
rthumb -8.36183 93.2132
lclavicle -1.88845e-014 -4.29375e-014
lhumerus -47.8449 13.9523 50.0401
lradius 104.726
lwrist 14.1071
lhand -36.0589 -35.7333
lfingers 7.12502
lthumb -9.1666 -5.9525
rfemur -1.7692 24.8869 25.6139
rtibia -0.0716232
rfoot -11.5451 -23.2956
rtoes 6.42668
lfemur 0.600152 -33.1387 -10.7064
ltibia -1.19917
lfoot -11.6205 39.6156
ltoes -3.36409
677
root -0.81894 17.6081 7.36567 8.87101 -2.0141 -6.24312
lowerback 8.31285 3.41109 10.5254
upperback -9.2409 6.62839 2.78129
thorax -14.2068 2.21856 -4.04235
lowerneck -9.36204 -11.7591 -7.8821
upperneck 17.6707 -15.7199 4.11623
head 7.95054 -7.67437 0.97869
rclavicle -2.10712e-014 4.13472e-014
rhumerus 12.7541 16.949 -54.5301
rradius 47.6944
rwrist 56.0316
rhand -34.9901 -63.8176
rfingers 7.12502
rthumb -8.13518 93.641
lclavicle -2.10712e-014 4.13472e-014
lhumerus -48.7052 13.8858 50.2581
lradius 104.982
lwrist 14.2287
lhand -35.9172 -35.6341
lfingers 7.12502
lthumb -9.02995 -5.8474
rfemur -2.26906 24.971 24.8961
rtibia 0.16211
rfoot -11.0946 -22.137
rtoes 5.52419
lfemur 0.952522 -33.2558 -11.4471
ltibia -1.21556
lfoot -12.6755 40.8502
ltoes -1.6674
